<svg id="SvgjsSvg1001" width="288" height="288" xmlns="http://www.w3.org/2000/svg" version="1.1" xmlns:xlink="http://www.w3.org/1999/xlink" xmlns:svgjs="http://svgjs.com/svgjs"><defs id="SvgjsDefs1002"></defs><g id="SvgjsG1008"><svg xmlns="http://www.w3.org/2000/svg" viewBox="0 0 700 700" width="288" height="288"><path d="m413.86 133.64c-0.61719 5.5703-0.93359 11.234-0.93359 16.969 0 5.7383 0.31641 11.398 0.93359 16.969h-351.64c-15.621 0-28.285 12.664-28.285 28.285v282.83c0 15.621 12.664 28.281 28.285 28.281h458.18c15.621 0 28.285-12.66 28.285-28.281v-176.29c5.5703 0.61328 11.234 0.92969 16.969 0.92969s11.398-0.31641 16.969-0.92969v176.29c0 34.363-27.855 62.223-62.223 62.223h-458.18c-34.363 0-62.223-27.859-62.223-62.223v-282.83c0-34.363 27.859-62.223 62.223-62.223zm17.902 90.504c14.613 26.551 36.891 48.285 63.855 62.223h-461.68v-62.223zm-397.83 62.223v-62.223zm531.72-254.55c65.605 0 118.79 53.184 118.79 118.79s-53.184 118.79-118.79 118.79-118.79-53.184-118.79-118.79 53.184-118.79 118.79-118.79zm16.969 39.598c0-9.3711-7.5977-16.969-16.969-16.969s-16.969 7.5977-16.969 16.969v92.066l61.734 61.734c6.625 6.625 17.371 6.625 23.996 0 6.6289-6.6289 6.6289-17.371 0-24l-51.793-51.793z" fill="#ffffff" class="color000 svgShape"></path></svg></g></svg>